<svg width="25" height="24" viewBox="0 0 25 24" fill="none" xmlns="http://www.w3.org/2000/svg">
<path d="M6.66797 7.7998H8.09422H19.5042" stroke="#BABABA" stroke-linecap="round" stroke-linejoin="round"/>
<path d="M10.2331 7.8V6.4C10.2331 6.0287 10.3834 5.6726 10.6509 5.41005C10.9183 5.1475 11.2811 5 11.6594 5H14.5119C14.8901 5 15.2529 5.1475 15.5204 5.41005C15.7879 5.6726 15.9381 6.0287 15.9381 6.4V7.8M18.0775 7.8V17.6C18.0775 17.9713 17.9272 18.3274 17.6598 18.5899C17.3923 18.8525 17.0295 19 16.6513 19H9.52C9.14174 19 8.77896 18.8525 8.51149 18.5899C8.24402 18.3274 8.09375 17.9713 8.09375 17.6V7.8H18.0775Z" stroke="#BABABA" stroke-linecap="round" stroke-linejoin="round"/>
<path d="M11.6602 11.2998V15.4998" stroke="#BABABA" stroke-linecap="round" stroke-linejoin="round"/>
<path d="M14.5117 11.2998V15.4998" stroke="#BABABA" stroke-linecap="round" stroke-linejoin="round"/>
</svg>
