<svg width="24" height="24" viewBox="0 0 24 24" fill="none" xmlns="http://www.w3.org/2000/svg">
<path d="M11.4286 5.14307H5.65079C5.21298 5.14307 4.79309 5.31699 4.48351 5.62657C4.17392 5.93616 4 6.35604 4 6.79386V18.3494C4 18.7872 4.17392 19.2071 4.48351 19.5167C4.79309 19.8263 5.21298 20.0002 5.65079 20.0002H17.2063C17.6442 20.0002 18.0641 19.8263 18.3736 19.5167C18.6832 19.2071 18.8571 18.7872 18.8571 18.3494V12.5716" stroke="#707070" stroke-width="1.2" stroke-linecap="round" stroke-linejoin="round"/>
<path d="M17.0691 4.50284C17.391 4.18088 17.8277 4 18.283 4C18.7384 4 19.1751 4.18088 19.497 4.50284C19.819 4.82481 19.9999 5.26149 19.9999 5.71681C19.9999 6.17214 19.819 6.60882 19.497 6.93078L11.8085 14.6193L8.57129 15.4286L9.3806 12.1913L17.0691 4.50284Z" stroke="#707070" stroke-width="1.2" stroke-linecap="round" stroke-linejoin="round"/>
</svg>